<?xml version="1.0" encoding="UTF-8"?>
<svg width="16px" height="16px" viewBox="0 0 16 16" version="1.1" xmlns="http://www.w3.org/2000/svg" xmlns:xlink="http://www.w3.org/1999/xlink">
    <title>resume icon</title>
    <g id="Page-1" stroke="none" stroke-width="1" fill="none" fill-rule="evenodd">
        <g id="02B-Candidate-Selection" transform="translate(-567.000000, -319.000000)" fill="#555555" fill-rule="nonzero">
            <g id="Group-3" transform="translate(305.000000, 182.000000)">
                <g id="table-row/member" transform="translate(24.000000, 88.000000)">
                    <g id="skills" transform="translate(238.000000, 0.000000)">
                        <g id="ic-resume-16" transform="translate(0.000000, 49.000000)">
                            <path d="M3.002,8.501 C2.72585763,8.501 2.502,8.27714237 2.502,8.001 C2.502,7.72485763 2.72585763,7.501 3.002,7.501 L8.502,7.501 C8.77814237,7.501 9.002,7.72485763 9.002,8.001 C9.002,8.27714237 8.77814237,8.501 8.502,8.501 L3.002,8.501 Z" id="Path"></path>
                            <path d="M3.002,11.501 C2.72585763,11.501 2.502,11.2771424 2.502,11.001 C2.502,10.7248576 2.72585763,10.501 3.002,10.501 L7.002,10.501 C7.27814237,10.501 7.502,10.7248576 7.502,11.001 C7.502,11.2771424 7.27814237,11.501 7.002,11.501 L3.002,11.501 Z" id="Path"></path>
                            <path d="M3.002,5.501 C2.72585763,5.501 2.502,5.27714237 2.502,5.001 C2.502,4.72485763 2.72585763,4.501 3.002,4.501 L12.002,4.501 C12.2781424,4.501 12.502,4.72485763 12.502,5.001 C12.502,5.27714237 12.2781424,5.501 12.002,5.501 L3.002,5.501 Z" id="Path"></path>
                            <path d="M8.668,16.0010002 C8.34631167,16.0011848 8.04417643,15.8466029 7.8561132,15.5856132 C7.66804998,15.3246234 7.61702473,14.9890975 7.719,14.684 L8.386,12.684 C8.52230178,12.2762015 8.90402584,12.001183 9.334,12.001 L10.334,12.001 L10.334,11.201 C9.62488585,10.3969401 9.67588981,9.17675743 10.4496328,8.43468138 C11.2233759,7.69260533 12.4446241,7.69260533 13.2183672,8.43468138 C13.9921102,9.17675743 14.0431142,10.3969401 13.334,11.201 L13.334,12.001 L14.334,12.001 C14.7642393,12.0013267 15.1460445,12.2768064 15.282,12.685 L15.95,14.685 C16.0515206,14.9898053 16.0004155,15.3248255 15.8126349,15.5854999 C15.6248543,15.8461743 15.3232672,16.0007561 15.002,16.0010002 L8.668,16.0010002 Z M15.002,15.001 L14.334,13.001 L12.834,13.001 C12.5578576,13.001 12.334,12.7771424 12.334,12.501 L12.334,11.001 C12.3339931,10.8585546 12.3947426,10.7228686 12.501,10.628 C12.8095749,10.3513803 12.9155604,9.91309479 12.7674726,9.52604569 C12.6193849,9.13899659 12.2479116,8.8833902 11.8335,8.8833902 C11.4190884,8.8833902 11.0476151,9.13899659 10.8995274,9.52604569 C10.7514396,9.91309479 10.8574251,10.3513803 11.166,10.628 C11.2718867,10.7230493 11.3322614,10.8587105 11.332,11.001 L11.332,12.501 C11.332,12.7771424 11.1081424,13.001 10.832,13.001 L9.332,13.001 L8.665,15.001 L15.002,15.001 Z" id="Shape"></path>
                            <path d="M1.502,16.0009985 C0.673572875,16.0009985 0.002,15.3294271 0.002,14.5009985 L0.002,1.50099854 C0.002,0.672572875 0.673572875,0.000998537632 1.502,0.000998537632 L11.502,0.000998537632 C11.893506,0.000452229474 12.2695404,0.153811083 12.549,0.428 L14.549,2.347 C14.8375657,2.63000434 15.0007206,3.01682186 15.002,3.421 L15.002,7.00099854 C15.002,7.27714237 14.7781424,7.50099854 14.502,7.50099854 C14.2258576,7.50099854 14.002,7.27714237 14.002,7.00099854 L14.002,3.421 C14.0019868,3.28619001 13.9475371,3.15709738 13.851,3.063 L11.851,1.144 C11.7577944,1.05260233 11.6325402,1.00128041 11.502,1.00099854 L1.502,1.00099854 C1.22585763,1.00099854 1.002,1.22485763 1.002,1.50099854 L1.002,14.5009985 C1.002,14.7771424 1.22585763,15.0009985 1.502,15.0009985 L6.002,15.0009985 C6.27814237,15.0009985 6.502,15.2248576 6.502,15.5009985 C6.502,15.7771424 6.27814237,16.0009985 6.002,16.0009985 L1.502,16.0009985 Z" id="Path"></path>
                        </g>
                    </g>
                </g>
            </g>
        </g>
    </g>
</svg>