<?xml version="1.0" encoding="UTF-8"?>
<svg width="24px" height="24px" viewBox="0 0 24 24" version="1.1" xmlns="http://www.w3.org/2000/svg" xmlns:xlink="http://www.w3.org/1999/xlink">
    <g id="Page-1" stroke="none" stroke-width="1" fill="none" fill-rule="evenodd">
        <g id="02J-Member-Details" transform="translate(-668.000000, -364.000000)" fill="#555555" fill-rule="nonzero">
            <g id="Group" transform="translate(305.000000, 182.000000)">
                <g id="info-copy-6" transform="translate(363.000000, 175.000000)">
                    <g id="ic-calendar-24" transform="translate(0.000000, 7.000000)">
                        <path d="M2.25,24 C1.00703537,24 -0.000896123778,22.9929641 -0.002,21.75 L-0.002,5.25 C-0.000896123778,4.00703586 1.00703537,3 2.25,3 L5.998,3 L5.998,0.75 C5.998,0.335786438 6.33378644,0 6.748,0 C7.16221356,0 7.498,0.335786438 7.498,0.75 L7.498,3 L16.498,3 L16.498,0.75 C16.498,0.335786438 16.8337864,0 17.248,0 C17.6622136,0 17.998,0.335786438 17.998,0.75 L17.998,3 L21.748,3 C22.9901836,3.00110269 23.9968973,4.00781635 23.998,5.25 L23.998,21.75 C23.9968995,22.991404 22.9914025,23.9977955 21.75,24 L2.25,24 Z M1.498,21.75 C1.498,22.1642136 1.83378644,22.5 2.248,22.5 L21.748,22.5 C22.1622136,22.5 22.498,22.1642136 22.498,21.75 L22.498,10.5 L1.498,10.5 L1.498,21.75 Z M22.498,9 L22.498,5.25 C22.498,4.83578644 22.1622136,4.5 21.748,4.5 L17.998,4.5 L17.998,6 C17.998,6.41421356 17.6622136,6.75 17.248,6.75 C16.8337864,6.75 16.498,6.41421356 16.498,6 L16.498,4.5 L7.498,4.5 L7.498,6 C7.498,6.41421356 7.16221356,6.75 6.748,6.75 C6.33378644,6.75 5.998,6.41421356 5.998,6 L5.998,4.5 L2.25,4.5 C1.83578644,4.5 1.5,4.83578644 1.5,5.25 L1.5,9 L22.498,9 Z" id="Shape"></path>
                    </g>
                </g>
            </g>
        </g>
    </g>
</svg>