<svg width="16" height="16" viewBox="0 0 16 16" fill="none" xmlns="http://www.w3.org/2000/svg">
<path fill-rule="evenodd" clip-rule="evenodd" d="M15.6571 0.342857C15.2 -0.114286 14.5143 -0.114286 14.0571 0.342857L8 6.4L1.94286 0.342857C1.48571 -0.114286 0.8 -0.114286 0.342857 0.342857C-0.114286 0.8 -0.114286 1.48571 0.342857 1.94286L6.4 8L0.342857 14.0571C-0.114286 14.5143 -0.114286 15.2 0.342857 15.6571C0.571429 15.8857 0.8 16 1.14286 16C1.48571 16 1.71429 15.8857 1.94286 15.6571L8 9.6L14.0571 15.6571C14.2857 15.8857 14.6286 16 14.8571 16C15.0857 16 15.4286 15.8857 15.6571 15.6571C16.1143 15.2 16.1143 14.5143 15.6571 14.0571L9.6 8L15.6571 1.94286C16.1143 1.48571 16.1143 0.8 15.6571 0.342857Z" fill="#2A2A2A"/>
</svg>
