<?xml version="1.0" encoding="UTF-8"?>
<svg width="24px" height="24px" viewBox="0 0 24 24" version="1.1" xmlns="http://www.w3.org/2000/svg" xmlns:xlink="http://www.w3.org/1999/xlink">
    <defs>
        <filter id="filter-1">
            <feColorMatrix in="SourceGraphic" type="matrix" values="0 0 0 0 0.333333 0 0 0 0 0.333333 0 0 0 0 0.333333 0 0 0 1.000000 0"></feColorMatrix>
        </filter>
    </defs>
    <g id="Page-1" stroke="none" stroke-width="1" fill="none" fill-rule="evenodd">
        <g id="02E-Job-Details" transform="translate(-329.000000, -487.000000)">
            <g id="Group" transform="translate(305.000000, 182.000000)">
                <g id="info-copy-2" transform="translate(24.000000, 298.000000)">
                    <g id="job-seach-team-man" transform="translate(0.000000, 7.000000)">
                        <g>
                            <path d="M14.50656,23.04 C14.108915,23.04 13.78656,22.717645 13.78656,22.32 C13.7844009,19.4182214 11.6253665,16.9704932 8.74656,16.60608 L8.74656,18.72 C8.74656,19.117645 8.42420502,19.44 8.02656,19.44 C7.62891498,19.44 7.30656,19.117645 7.30656,18.72 L7.30656,16.60608 C4.42775353,16.9704932 2.26871907,19.4182214 2.26656,22.32 C2.26655999,22.717645 1.94420502,23.04 1.54656,23.04 C1.14891498,23.04 0.82656,22.717645 0.82656,22.32 C0.82656,18.3504 4.05696,15.12 8.02656,15.12 C11.99616,15.12 15.22656,18.3504 15.22656,22.32 C15.22656,22.71648 14.90304,23.04 14.50656,23.04 Z" id="Path" fill="#000000" fill-rule="nonzero"></path>
                            <path d="M8.02176,15.1181096 C6.96599047,15.1215928 5.94071338,14.7642531 5.11584,14.10528 C3.3264,12.68448 2.83104,10.1184 3.96096,8.1312 C4.07827784,7.92081674 4.21180151,7.71988929 4.36032,7.53024 C5.24578457,6.409082 6.5969536,5.75650062 8.0256,5.759986 C8.25216,5.759986 8.47968,5.77632 8.70432,5.808 C8.89374988,5.83429548 9.0646492,5.93565884 9.17856,6.08928 C9.35034251,6.32310053 9.3656804,6.636973 9.21751396,6.88642836 C9.06934752,7.13588373 8.78638964,7.27258051 8.49888,7.2336 C8.34210213,7.21132467 8.1839524,7.200097 8.0256,7.2 C7.07136,7.2 6.18048,7.61184 5.56416,8.33376 C6.62390243,9.22356048 7.96185024,9.71403945 9.3456,9.72 C9.72882388,9.73953838 10.0295941,10.0558226 10.0298499,10.4395442 C10.0301057,10.8232657 9.72975749,11.1399507 9.34656,11.16 C7.73395722,11.1599347 6.16695837,10.6247713 4.8912,9.6384 C4.5757168,10.8751113 5.0140801,12.1819373 6.01152,12.97824 C6.68253623,13.516549 7.54209422,13.7618898 8.39616,13.65888 C9.25058512,13.5634748 10.0312381,13.1299323 10.56384,12.45504 C10.6819564,12.3048155 10.8552133,12.2080285 11.0450631,12.1862129 C11.2349129,12.1643973 11.4256076,12.2193627 11.57472,12.33888 C11.7250057,12.4571695 11.8218137,12.6305906 11.8436266,12.8205969 C11.8654395,13.0106033 11.8104498,13.2014509 11.69088,13.35072 C10.8038192,14.4716303 9.45119721,15.123168 8.02176,15.1181096 L8.02176,15.1181096 Z" id="Path" fill="#000000" fill-rule="nonzero"></path>
                            <path d="M18.09696,16.56192 C17.2480159,16.5628203 16.4216922,16.2882773 15.74208,15.77952 C15.0065077,15.2317597 14.4834081,14.4460926 14.26176,13.55616 C14.2090787,13.3412058 14.2579052,13.1139642 14.3942332,12.9396217 C14.5305611,12.7652793 14.7393255,12.6631018 14.96064,12.6624 C15.2914176,12.6623258 15.5796923,12.8876394 15.65952,13.20864 C15.79968,13.77408 16.13472,14.27616 16.60128,14.62368 C17.03808,14.94816 17.55744,15.12 18.1008,15.12 C18.89664,15.12 19.65408,14.7408 20.1264,14.10528 C20.3652603,13.7883447 20.8145896,13.7224431 21.1344,13.95744 C21.2879103,14.0712967 21.3898526,14.241517 21.4177638,14.430593 C21.445675,14.6196689 21.3972647,14.8120842 21.2832,14.96544 C20.5366727,15.9754869 19.352927,16.5686081 18.09696,16.56192 L18.09696,16.56192 Z" id="Path" fill="#000000" fill-rule="nonzero"></path>
                            <path d="M17.38656,23.04 C16.988915,23.04 16.66656,22.717645 16.66656,22.32 C16.66656,21.922355 16.988915,21.6 17.38656,21.6 L22.36704,21.6 C22.0076518,19.5256881 20.211759,18.0082032 18.10656,18 C17.49888,18 16.91616,18.12576 16.368,18.37344 C16.1028385,18.4898906 15.7937703,18.4368475 15.5826096,18.2386492 C15.371449,18.0404509 15.2989585,17.7353578 15.3984,17.46336 C15.4650797,17.2843069 15.6010739,17.1396616 15.77568,17.06208 C16.5064203,16.7311459 17.2995774,16.5605992 18.10176,16.5619124 C21.2830404,16.5635057 23.8623243,19.140642 23.86656,22.32192 C23.86656,22.719565 23.544205,23.04192 23.14656,23.04192 L17.38656,23.04192 L17.38656,23.04 Z" id="Path" fill="#000000" fill-rule="nonzero"></path>
                            <path d="M23.16,13.6934433 C22.9689603,13.6940177 22.7856732,13.6179363 22.6512,13.48224 L19.48992,10.32096 C18.4808184,11.1063542 17.238722,11.5329976 15.96,11.53344 C12.78336,11.53344 10.2,8.94912 10.2,5.77344 C10.2,2.59776 12.78432,0.01344 15.96,0.01344 C19.13568,0.01344 21.72,2.59776 21.72,5.77344 C21.7197105,7.05189427 21.2930389,8.29373483 20.50752,9.3024 L23.6688,12.46368 C23.8731858,12.6701707 23.9338711,12.9790629 23.822796,13.2475294 C23.7117208,13.515996 23.4505322,13.6917163 23.16,13.6934433 Z M15.96,1.45344 C13.57824,1.45344 11.64,3.39168 11.64,5.77344 C11.64,8.1552 13.57824,10.09344 15.96,10.09344 C18.34176,10.09344 20.28,8.1552 20.28,5.77344 C20.28,3.39168 18.34176,1.45344 15.96,1.45344 Z" id="Shape" fill="#000000" fill-rule="nonzero"></path>
                        </g>
                    </g>
                </g>
            </g>
        </g>
    </g>
</svg>