<svg viewBox="0 0 48 48" height="48" width="48" xmlns="http://www.w3.org/2000/svg"><g transform="matrix(2,0,0,2,0,0)"><path d="M11.250 17.250 A6.000 6.000 0 1 0 23.250 17.250 A6.000 6.000 0 1 0 11.250 17.250 Z" fill="none" stroke="#1E94A3" stroke-linecap="round" stroke-linejoin="round" stroke-width="1.5"></path><path d="M17.25 14.25L17.25 20.25" fill="none" stroke="#1E94A3" stroke-linecap="round" stroke-linejoin="round" stroke-width="1.5"></path><path d="M14.25 17.25L20.25 17.25" fill="none" stroke="#1E94A3" stroke-linecap="round" stroke-linejoin="round" stroke-width="1.5"></path><path d="M.75,17.25a6.753,6.753,0,0,1,9.4-6.208" fill="none" stroke="#1E94A3" stroke-linecap="round" stroke-linejoin="round" stroke-width="1.5"></path><path d="M3.945,2.781a6.848,6.848,0,0,0,4.93,2.094,6.843,6.843,0,0,0,2.712-.558" fill="none" stroke="#1E94A3" stroke-linecap="round" stroke-linejoin="round" stroke-width="1.5"></path><path d="M3.375 4.875 A4.125 4.125 0 1 0 11.625 4.875 A4.125 4.125 0 1 0 3.375 4.875 Z" fill="none" stroke="#1E94A3" stroke-linecap="round" stroke-linejoin="round" stroke-width="1.5"></path></g></svg>