<?xml version="1.0" encoding="UTF-8"?>
<svg width="24px" height="24px" viewBox="0 0 24 24" version="1.1" xmlns="http://www.w3.org/2000/svg" xmlns:xlink="http://www.w3.org/1999/xlink">
    <g id="Page-1" stroke="none" stroke-width="1" fill="none" fill-rule="evenodd">
        <g id="01A-My-Teams" transform="translate(-679.000000, -309.000000)" fill="#555555" fill-rule="nonzero">
            <g id="My-team-card-Copy" transform="translate(655.000000, 182.000000)">
                <g id="info-copy" transform="translate(24.000000, 120.000000)">
                    <g id="ic-clock" transform="translate(0.000000, 7.000000)">
                        <path d="M12,24 C5.372583,24 -2.88657986e-15,18.627417 -2.88657986e-15,12 C-2.88657986e-15,5.372583 5.372583,-2.88657986e-15 12,-2.88657986e-15 C18.627417,-2.88657986e-15 24,5.372583 24,12 C23.9922852,18.6242188 18.6242188,23.9922852 12,24 Z M12,1.6 C6.2562386,1.6 1.6,6.2562386 1.6,12 C1.6,17.7437614 6.2562386,22.4 12,22.4 C17.7437614,22.4 22.4,17.7437614 22.4,12 C22.3933872,6.25897995 17.74102,1.60661282 12,1.6 Z" id="Shape"></path>
                        <path d="M16,16.8000015 C15.7878112,16.8004122 15.584308,16.7157693 15.435,16.565 L13.035,14.165 C12.2335035,14.5519882 11.2836627,14.4636489 10.5672788,13.9354911 C9.85089485,13.4073334 9.48562097,12.5260977 9.61828382,11.6460085 C9.75094668,10.7659192 10.3597588,10.0315152 11.2,9.738 L11.2,4.8 C11.2,4.3581722 11.5581722,4 12,4 C12.4418278,4 12.8,4.3581722 12.8,4.8 L12.8,9.738 C13.7565811,10.0796731 14.3964139,10.9842367 14.4,12 C14.4005237,12.3579647 14.3201918,12.7114252 14.165,13.034 L16.565,15.434 C16.7939353,15.6626806 16.8625666,16.0067548 16.738889,16.30577 C16.6152115,16.6047851 16.3235833,16.7998501 16,16.8000015 Z M12,11.2 C11.5581722,11.2 11.2,11.5581722 11.2,12 C11.2,12.4418278 11.5581722,12.8 12,12.8 C12.4418278,12.8 12.8,12.4418278 12.8,12 C12.8,11.7878268 12.7157145,11.5843437 12.5656854,11.4343146 C12.4156563,11.2842855 12.2121732,11.2 12,11.2 L12,11.2 Z" id="Shape"></path>
                    </g>
                </g>
            </g>
        </g>
    </g>
</svg>
