<svg height="300" width="300" xmlns="http://www.w3.org/2000/svg" viewBox="0 0 100 100">
  <switch>
    <g>
      <path d="M50 5C25.3 5 5.2 25.1 5 49.7c-.1 12 4.5 23.4 13 31.9 8.4 8.6 19.7 13.3 31.7 13.4h.3c24.7 0 44.8-20.1 45-44.7C95.2 25.5 75.1 5.2 50 5zm0 83.9h-.3c-10.4-.1-20.1-4.2-27.5-11.6C15 70 11 60.2 11.1 49.8c.1-21.3 17.6-38.7 39.2-38.7 21.5.1 38.8 17.7 38.7 39.2-.2 21.3-17.7 38.6-39 38.6z"/>
      <path d="M50 60c1.9 0 3.4-1.5 3.4-3.4v-28c0-1.9-1.5-3.4-3.4-3.4s-3.4 1.5-3.4 3.4v28c0 1.9 1.5 3.4 3.4 3.4zM50 66.6c-2.5 0-4.6 2.1-4.6 4.6v.2c0 2.5 2.1 4.6 4.6 4.6 2.5 0 4.6-2.1 4.6-4.6v-.2c0-2.5-2.1-4.6-4.6-4.6z"/>
    </g>
  </switch>
</svg>
