<svg viewBox="0 0 72 72" height="72" width="72" xmlns="http://www.w3.org/2000/svg"><g transform="matrix(3,0,0,3,0,0)"><path d="M22.5,21.748a1.5,1.5,0,0,1-1.5,1.5H3a1.5,1.5,0,0,1-1.5-1.5V2.248A1.5,1.5,0,0,1,3,.748H18a1.5,1.5,0,0,1,1.047.427l3,2.882A1.5,1.5,0,0,1,22.5,5.131Z" fill="none" stroke="#FFF" stroke-linecap="round" stroke-linejoin="round" stroke-width="1.5"></path><path d="M9 11.248L9 5.248" fill="none" stroke="#FFF" stroke-linecap="round" stroke-linejoin="round" stroke-width="1.5"></path><path d="M6 6.748L6 5.248 12 5.248 12 6.748" fill="none" stroke="#FFF" stroke-linecap="round" stroke-linejoin="round" stroke-width="1.5"></path><path d="M15.75 9.748L18 9.748" fill="none" stroke="#FFF" stroke-linecap="round" stroke-linejoin="round" stroke-width="1.5"></path><path d="M15.75 5.248L18 5.248" fill="none" stroke="#FFF" stroke-linecap="round" stroke-linejoin="round" stroke-width="1.5"></path><path d="M6 14.248L18 14.248" fill="none" stroke="#FFF" stroke-linecap="round" stroke-linejoin="round" stroke-width="1.5"></path><path d="M6 18.748L18 18.748" fill="none" stroke="#FFF" stroke-linecap="round" stroke-linejoin="round" stroke-width="1.5"></path><path d="M7.5 11.248L10.5 11.248" fill="none" stroke="#FFF" stroke-linecap="round" stroke-linejoin="round" stroke-width="1.5"></path></g></svg>