<svg width="42" height="42" xmlns="http://www.w3.org/2000/svg" version="1.1">

 <g>
  <title>Layer 1</title>
  <path stroke="null" id="svg_1" d="m14.10012,32.43875l0,-1.45381c1.94224,-1.09411 3.52653,-3.82364 3.52653,-6.5523c0,-4.3826 0,-7.9347 -5.2898,-7.9347s-5.2898,3.5521 -5.2898,7.9347c0,2.72954 1.58429,5.45819 3.52653,6.5523l0,1.45381c-5.981,0.48931 -10.5796,3.42779 -10.5796,6.98077l24.68573,0c0,-3.55298 -4.5986,-6.49235 -10.5796,-6.98077z" fill="#444444"/>

  <g stroke="null" id="svg_24">
   <g stroke="null" fill-rule="evenodd" fill="none" id="svg_13">
    <g stroke="null" id="svg_14">
     <rect stroke="null" rx="4" height="20.92742" width="20.92742" y="4.48319" x="21.05456" fill="#058D4B" id="svg_22"/>
     <rect stroke="null" rx="4" height="20.92742" width="20.92742" y="2.80899" x="19.38036" fill="#05C14F" id="svg_21"/>
     <g stroke="#FFFFFF" stroke-linejoin="round" stroke-linecap="round" stroke-width="1.5" id="svg_15" fill="none">
      <path id="svg_20" d="m29.53714,19.74625l-4.91097,0l0,-3.57162l4.91097,0l0,3.57162l0,0z"/>
      <path id="svg_19" d="m29.37686,8.83716l4.62279,0l0,1.45983"/>
      <path id="svg_18" d="m29.91693,18.13599l4.11088,0l0,-1.88912"/>
      <path id="svg_17" d="m29.18636,8.96764c0,1.32102 -1.07069,2.39171 -2.39171,2.39171c-1.32102,0 -2.39171,-1.07069 -2.39171,-2.39171c0,-1.32102 1.07069,-2.39171 2.39171,-2.39171c1.32102,0 2.39171,1.07069 2.39171,2.39171l0,0l0,0z"/>
      <path stroke="null" id="svg_16" d="m34.01325,10.20255l-3.06573,3.06573l3.06573,3.06573l3.06573,-3.06573l-3.06573,-3.06573l0,0z"/>
     </g>
    </g>
   </g>
  </g>
 </g>
</svg>
