<?xml version="1.0" encoding="UTF-8"?>
<svg width="24px" height="24px" viewBox="0 0 24 24" version="1.1" xmlns="http://www.w3.org/2000/svg" xmlns:xlink="http://www.w3.org/1999/xlink">
    <g id="Page-1" stroke="none" stroke-width="1" fill="none" fill-rule="evenodd">
        <g id="02E-Job-Details" transform="translate(-329.000000, -273.000000)" fill="#555555" fill-rule="nonzero">
            <g id="Group" transform="translate(305.000000, 182.000000)">
                <g id="info-copy-3" transform="translate(24.000000, 84.000000)">
                    <g id="common-file-text-info" transform="translate(0.000000, 7.000000)">
                        <g>
                            <path d="M17.25,24 C13.528,24 10.5,20.972 10.5,17.25 C10.5,13.528 13.528,10.5 17.25,10.5 C20.972,10.5 24,13.528 24,17.25 C24,20.972 20.972,24 17.25,24 Z M17.25,12 C14.355,12 12,14.355 12,17.25 C12,20.145 14.355,22.5 17.25,22.5 C20.145,22.5 22.5,20.145 22.5,17.25 C22.5,14.355 20.145,12 17.25,12 Z" id="Shape"></path>
                            <path d="M17.25,21 C16.8357864,21 16.5,20.6642136 16.5,20.25 L16.5,17.25 C16.5,16.8357864 16.8357864,16.5 17.25,16.5 C17.6642136,16.5 18,16.8357864 18,17.25 L18,20.25 C18,20.6642136 17.6642136,21 17.25,21 Z" id="Path"></path>
                            <circle id="Oval" cx="17.25" cy="14.686" r="1.125"></circle>
                            <path d="M3.75,7.5 C3.33578644,7.5 3,7.16421356 3,6.75 C3,6.33578644 3.33578644,6 3.75,6 L14.25,6 C14.6642136,6 15,6.33578644 15,6.75 C15,7.16421356 14.6642136,7.5 14.25,7.5 L3.75,7.5 Z" id="Path"></path>
                            <path d="M3.75,12 C3.33578644,12 3,11.6642136 3,11.25 C3,10.8357864 3.33578644,10.5 3.75,10.5 L9.75,10.5 C10.1642136,10.5 10.5,10.8357864 10.5,11.25 C10.5,11.6642136 10.1642136,12 9.75,12 L3.75,12 Z" id="Path"></path>
                            <path d="M3.75,16.5 C3.33578644,16.5 3,16.1642136 3,15.75 C3,15.3357864 3.33578644,15 3.75,15 L7.5,15 C7.91421356,15 8.25,15.3357864 8.25,15.75 C8.25,16.1642136 7.91421356,16.5 7.5,16.5 L3.75,16.5 Z" id="Path"></path>
                            <path d="M2.25,21 C1.00781635,20.9988973 0.00110269364,19.9921836 0,18.75 L0,2.25 C0.00110269364,1.00781635 1.00781635,0.00110269364 2.25,0 L12.879,0 C13.48,0 14.044,0.234 14.469,0.658 L17.341,3.53 C17.766,3.955 18,4.52 18,5.121 L18,7.5 C18,7.91421356 17.6642136,8.25 17.25,8.25 C16.8357864,8.25 16.5,7.91421356 16.5,7.5 L16.5,5.121 C16.5,4.924 16.42,4.731 16.281,4.591 L13.409,1.719 C13.2684435,1.57848769 13.0777454,1.49968983 12.879,1.5 L2.25,1.5 C1.83578644,1.5 1.5,1.83578644 1.5,2.25 L1.5,18.75 C1.5,19.164 1.836,19.5 2.25,19.5 L7.5,19.5 C7.91421356,19.5 8.25,19.8357864 8.25,20.25 C8.25,20.6642136 7.91421356,21 7.5,21 L2.25,21 Z" id="Path"></path>
                        </g>
                    </g>
                </g>
            </g>
        </g>
    </g>
</svg>