<svg width="32" height="32" viewBox="0 0 32 32" fill="none" xmlns="http://www.w3.org/2000/svg">
<path fill-rule="evenodd" clip-rule="evenodd" d="M16.0145 2C13.7026 2.00003 11.4268 2.57256 9.39015 3.66647C7.3535 4.76038 5.61945 6.34162 4.34282 8.269C3.0662 10.1964 2.28673 12.4099 2.07403 14.7119C1.86133 17.014 2.22201 19.3328 3.12387 21.4615C4.02573 23.5901 5.4407 25.4623 7.24242 26.9109C9.04415 28.3595 11.1766 29.3393 13.4492 29.7629C15.7219 30.1866 18.0641 30.0408 20.2668 29.3386C22.4694 28.6365 24.4639 27.3998 26.0721 25.739C26.4563 25.3423 27.0893 25.3321 27.4861 25.7163C27.8828 26.1005 27.893 26.7336 27.5088 27.1303C25.6709 29.0284 23.3915 30.4417 20.8742 31.2442C18.3569 32.0466 15.6801 32.2132 13.0828 31.7291C10.4854 31.2449 8.04836 30.1251 5.98925 28.4696C3.93013 26.8141 2.31303 24.6745 1.28233 22.2417C0.251638 19.8089 -0.16057 17.1588 0.0825162 14.5279C0.325603 11.897 1.21642 9.36729 2.67542 7.16457C4.13442 4.96185 6.11619 3.15472 8.44379 1.90454C10.7714 0.654358 13.3723 3.63192e-05 16.0144 0C16.5667 -7.6293e-06 17.0144 0.447702 17.0144 0.999986C17.0145 1.55227 16.5667 1.99999 16.0145 2Z" fill="#1E94A3"/>
<path fill-rule="evenodd" clip-rule="evenodd" d="M16.0146 9.66675C16.5669 9.66675 17.0146 10.1145 17.0146 10.6667V16.2243L23.3246 21.9601C23.7333 22.3316 23.7634 22.964 23.392 23.3727C23.0205 23.7814 22.388 23.8115 21.9794 23.4401L15.342 17.4067C15.1335 17.2172 15.0146 16.9485 15.0146 16.6667V10.6667C15.0146 10.1145 15.4624 9.66675 16.0146 9.66675Z" fill="#1E94A3"/>
<path fill-rule="evenodd" clip-rule="evenodd" d="M19.1715 1.29872C19.3231 0.767654 19.8765 0.460056 20.4076 0.611679C21.322 0.872753 22.2113 1.21503 23.0648 1.63443C23.5604 1.878 23.7648 2.47728 23.5212 2.97295C23.2777 3.46862 22.6784 3.67299 22.1827 3.42942C21.4362 3.06258 20.6584 2.76319 19.8585 2.53483C19.3275 2.38321 19.0199 1.82978 19.1715 1.29872Z" fill="#1E94A3"/>
<path fill-rule="evenodd" clip-rule="evenodd" d="M26.1039 4.85C26.5005 4.46565 27.1336 4.47559 27.5179 4.87219C28.1798 5.55513 28.7789 6.29616 29.308 7.08636C29.6153 7.54525 29.4925 8.16638 29.0336 8.47368C28.5747 8.78099 27.9535 8.6581 27.6462 8.19921C27.1838 7.50858 26.6601 6.86092 26.0817 6.26404C25.6973 5.86744 25.7073 5.23435 26.1039 4.85Z" fill="#1E94A3"/>
<path fill-rule="evenodd" clip-rule="evenodd" d="M30.3273 11.3875C30.863 11.2531 31.4061 11.5784 31.5405 12.1141C31.7719 13.0367 31.92 13.9781 31.983 14.9272C32.0196 15.4782 31.6025 15.9546 31.0515 15.9912C30.5004 16.0278 30.024 15.6107 29.9874 15.0597C29.9323 14.2301 29.8029 13.4071 29.6006 12.6007C29.4662 12.065 29.7916 11.5218 30.3273 11.3875Z" fill="#1E94A3"/>
<path fill-rule="evenodd" clip-rule="evenodd" d="M30.7153 19.1608C31.2465 19.3122 31.5544 19.8654 31.403 20.3966C31.1424 21.3112 30.8 22.2006 30.3797 23.0538C30.1357 23.5492 29.5362 23.753 29.0408 23.509C28.5453 23.265 28.3415 22.6655 28.5856 22.1701C28.9527 21.4247 29.2519 20.6477 29.4796 19.8486C29.6309 19.3174 30.1842 19.0095 30.7153 19.1608Z" fill="#1E94A3"/>
</svg>
