<svg viewBox="0 0 72 72" height="72" width="72" xmlns="http://www.w3.org/2000/svg"><g transform="matrix(3,0,0,3,0,0)"><path d="M8.25,23.259h-6a1.5,1.5,0,0,1-1.5-1.5V2.259a1.5,1.5,0,0,1,1.5-1.5H12.879a1.5,1.5,0,0,1,1.06.439l5.872,5.871A1.5,1.5,0,0,1,20.25,8.13v.129" fill="none" stroke="#FFF" stroke-linecap="round" stroke-linejoin="round" stroke-width="1.5"></path><path d="M12.75.759v6a1.5,1.5,0,0,0,1.5,1.5h6" fill="none" stroke="#FFF" stroke-linecap="round" stroke-linejoin="round" stroke-width="1.5"></path><path d="M8.169,9.617,6.037,12.459a.75.75,0,0,1-1.13.08L3.75,11.382" fill="none" stroke="#FFF" stroke-linecap="round" stroke-linejoin="round" stroke-width="1.5"></path><path d="M8.169,16.367,6.037,19.209a.75.75,0,0,1-1.13.08L3.75,18.132" fill="none" stroke="#FFF" stroke-linecap="round" stroke-linejoin="round" stroke-width="1.5"></path><path d="M10.981 23.259L16.815 17.425" fill="none" stroke="#FFF" stroke-linecap="round" stroke-linejoin="round" stroke-width="1.5"></path><path d="M23.179,11.061a10.416,10.416,0,0,0-2.241,0l-2,3.18-1.229-2.289c-4.459,2.188-6.2,7.478-4.551,9.129C15.37,23.3,24.128,19.416,23.179,11.061Z" fill="none" stroke="#FFF" stroke-linecap="round" stroke-linejoin="round" stroke-width="1.5"></path></g></svg>