<svg width="16" height="16" viewBox="0 0 16 16" fill="none" xmlns="http://www.w3.org/2000/svg">
<path fill-rule="evenodd" clip-rule="evenodd" d="M11.0934 4.28446C10.5156 3.7422 9.50224 3.09331 8.00004 3.09331C5.8845 3.09331 4.08896 4.48889 3.44001 6.41777L3.43997 6.41774L3.43997 6.41777C3.27997 6.91554 3.18223 7.44886 3.18223 8C3.18223 8.55109 3.27997 9.08446 3.44885 9.58223L3.44889 9.58223C4.08896 11.5111 5.8845 12.9066 8.00004 12.9066C9.1911 12.9066 10.0978 12.5778 10.7733 12.1067L10.7733 12.1066C11.84 11.36 12.32 10.2489 12.4089 9.51108H8V6.54223H15.5111C15.6266 7.04 15.68 7.52 15.68 8.17777C15.68 10.6133 14.8089 12.6666 13.2978 14.0622L13.2978 14.0622C11.9733 15.2889 10.16 16 8.00004 16C4.87112 16 2.16889 14.2044 0.853353 11.5911L0.853313 11.5911C0.311115 10.5066 0 9.28889 0 8C0 6.71112 0.311115 5.49331 0.853313 4.40886L0.853364 4.40883C2.16891 1.79553 4.87113 0 8.00004 0C10.16 0 11.9645 0.791114 13.3511 2.08L11.0934 4.28446Z" fill="white"/>
</svg>
