<?xml version="1.0" encoding="UTF-8"?>
<svg width="37px" height="36px" viewBox="0 0 37 36" version="1.1" xmlns="http://www.w3.org/2000/svg" xmlns:xlink="http://www.w3.org/1999/xlink">
    <title>F087A2AF-1A0A-4B0C-9EFD-323859E6F7A9</title>
    <g id="Screens" stroke="none" stroke-width="1" fill="none" fill-rule="evenodd">
        <g id="03_2_Match-Not-Found" transform="translate(-665.000000, -162.000000)" fill="#FFFFFF">
            <g id="Group" transform="translate(540.000000, 162.000000)">
                <g id="ic-/-36-/-no-matching-profiles" transform="translate(125.020464, -0.000000)">
                    <path d="M25.8739308,15.7501631 C31.4575204,15.7501631 36,20.2926427 36,25.8762323 C36,31.4598219 31.4575204,36.0023015 25.8739308,36.0023015 C20.2903412,36.0023015 15.7478615,31.4598219 15.7478615,25.8762323 C15.7478615,20.2926427 20.2903412,15.7501631 25.8739308,15.7501631 Z M18.0071001,-9.23705556e-14 C18.8081847,-9.23705556e-14 19.6182702,0.0540057025 20.4148543,0.162017108 C20.998416,0.241525503 21.6059801,0.3570377 22.2225452,0.505553382 C22.2945528,0.516054491 22.3650603,0.532556233 22.4355677,0.558058926 C26.3329792,1.55266395 29.8298485,3.86590821 32.2916084,7.07924751 C32.3696167,7.15575559 32.4341235,7.24276477 32.4851289,7.33727475 C34.2793183,9.76903153 35.4389408,12.6253331 35.8394831,15.6016474 C35.9219918,16.2167123 35.4899461,16.7837722 34.8748812,16.8662809 C34.8223757,16.8737817 34.7728704,16.876782 34.7248654,16.876782 C34.1638061,16.876782 33.6837554,16.4582379 33.6102477,15.9016791 C33.2772125,13.4309182 32.3471143,11.051667 30.9129629,9.00095042 L26.140959,9.00095042 C26.3824845,10.1035669 26.5520024,11.1971823 26.6465124,12.2592945 C26.7020182,12.8773597 26.2429697,13.4249176 25.6264046,13.4789233 C25.591901,13.4819236 25.5588975,13.4834237 25.525894,13.4834237 C24.9393321,13.4834237 24.4577812,13.0423772 24.4052757,12.4573154 C24.3032649,11.3126945 24.1127448,10.1515719 23.8382158,9.00095042 L12.210488,9.00095042 C11.736438,11.0831703 11.4274053,13.3964145 11.3073927,15.7516632 L15.7478615,15.7516632 C16.3689271,15.7516632 16.8729803,16.2557165 16.8729803,16.876782 C16.8729803,17.4978476 16.3689271,18.0019008 15.7478615,18.0019008 L11.2473863,18.0019008 C11.2473863,24.1870539 12.5405229,30.049673 14.6317437,33.3905258 C15.0562885,33.4835356 15.4763329,33.5585435 15.8813756,33.6140494 C16.1799072,33.6545536 16.443935,33.8075698 16.6254542,34.0475951 C16.8069734,34.2861203 16.8849816,34.5831517 16.8444773,34.8801831 C16.7709696,35.4337415 16.292419,35.8522857 15.73286,35.8522857 C15.6818546,35.8522857 15.629349,35.8492854 15.5768435,35.8417846 C14.9527776,35.7577757 14.3137101,35.6347627 13.6791431,35.4787463 C13.6731425,35.4772461 13.6356385,35.4682451 13.6296379,35.4652448 C8.74662227,34.2516167 4.55968017,30.9902723 2.15042577,26.5198003 C2.09642007,26.4432922 2.05291548,26.3592833 2.01991199,26.270774 C0.51675327,23.3754683 -0.168819121,20.1306256 0.0352024223,16.8797824 L0.0352024223,16.8737817 C0.0352024223,16.848279 0.0382027391,16.800274 0.0427032144,16.7747713 C0.071206224,16.3352249 0.108710184,15.948184 0.158215411,15.5821453 C0.564758339,12.5803284 1.73488189,9.71052535 3.54257277,7.28176889 C3.58307705,7.21576192 3.62958196,7.15425543 3.6820875,7.10024973 C6.13484649,3.88991074 9.63021557,1.57066585 13.5336277,0.567059877 C13.6131361,0.537056709 13.6986452,0.516054491 13.7856544,0.505553382 C15.1703006,0.171018058 16.5894504,-9.23705556e-14 18.0071001,-9.23705556e-14 Z M25.8739308,18.0004007 C21.5309722,18.0004007 17.9980992,21.5332737 17.9980992,25.8762323 C17.9980992,30.2191909 21.5309722,33.7520639 25.8739308,33.7520639 C30.2168894,33.7520639 33.7497624,30.2191909 33.7497624,25.8762323 C33.7497624,21.5332737 30.2168894,18.0004007 25.8739308,18.0004007 Z M9.8927433,27.0013511 L5.08173529,27.0013511 C6.72290859,29.3550996 8.97314619,31.2182964 11.5714205,32.3824193 C10.8828478,30.8192543 10.3202884,29.0160639 9.8927433,27.0013511 Z M29.2492872,21.3727568 C29.5493189,21.3727568 29.8328488,21.4897691 30.0443711,21.7027916 C30.4824174,22.1408379 30.4824174,22.8549133 30.0443711,23.2944597 L27.4640987,25.8747322 L30.0443711,28.4550046 C30.4824174,28.8930509 30.4824174,29.6071263 30.0443711,30.0466727 C29.8328488,30.2596952 29.5493189,30.3767075 29.2492872,30.3767075 C28.9492555,30.3767075 28.6657256,30.2596952 28.4542032,30.0466727 L25.8739308,27.4664002 L23.2936583,30.0466727 C23.0806358,30.2596952 22.798606,30.3767075 22.4985744,30.3767075 C22.1985427,30.3767075 21.9150127,30.2596952 21.7034904,30.0466727 C21.2654442,29.6086264 21.2654442,28.894551 21.7034904,28.4550046 L24.2837629,25.8747322 L21.7034904,23.2944597 C21.2654442,22.8564134 21.2654442,22.142338 21.7034904,21.7027916 C21.9165129,21.4897691 22.1985427,21.3727568 22.4985744,21.3727568 C22.798606,21.3727568 23.082136,21.4897691 23.2936583,21.7027916 L25.8739308,24.2830641 L28.4542032,21.7027916 C28.6672257,21.4897691 28.9492555,21.3727568 29.2492872,21.3727568 Z M8.99714873,18.0004007 L2.24493575,18.0004007 C2.24493575,20.3256462 2.76849103,22.6418908 3.77209701,24.7511135 L9.48620037,24.7511135 C9.16216615,22.5938857 8.99714873,20.3256462 8.99714873,18.0004007 Z M9.89124314,8.99945027 L5.0742345,8.99945027 C3.67608687,11.0006616 2.75498961,13.3259071 2.4054527,15.7501631 L9.05265459,15.7501631 C9.16366631,13.3679115 9.44419593,11.1026723 9.89124314,8.99945027 Z M24.3587708,3.59737985 C24.8148189,4.60848662 25.2123609,5.66309798 25.5483964,6.74921266 L29.0032612,6.74921266 C27.6531186,5.42907326 26.0779523,4.35946032 24.3587708,3.59737985 Z M18.0040998,2.24873745 C16.8729803,2.24873745 15.7388606,2.3732506 14.6287434,2.61627626 C13.93417,3.72639348 13.3266059,5.11253984 12.8150519,6.74921266 L23.1856469,6.74921266 C22.693595,5.30456012 22.0725294,3.91541343 21.3329513,2.60877546 C20.9174074,2.5172658 20.5078642,2.4452582 20.1133225,2.3912525 C19.4157488,2.29674252 18.7061739,2.24873745 18.0040998,2.24873745 Z M11.5654199,3.6318835 C9.87024092,4.39396397 8.31907713,5.45007548 6.98843662,6.74921266 L10.4508022,6.74921266 C10.7748364,5.62559402 11.1468757,4.58298392 11.5654199,3.6318835 Z" id="Combined-Shape"></path>
                </g>
            </g>
        </g>
    </g>
</svg>