<?xml version="1.0" encoding="UTF-8"?>
<svg width="32px" height="36px" viewBox="0 0 32 36" version="1.1" xmlns="http://www.w3.org/2000/svg" xmlns:xlink="http://www.w3.org/1999/xlink">
    <title>6689786D-49B2-4268-925B-3437502831F5</title>
    <g id="Intake" stroke="none" stroke-width="1" fill="none" fill-rule="evenodd">
        <g id="Match-Not-Found-V2" transform="translate(-662.000000, -162.000000)" fill="#FFFFFF" fill-rule="nonzero">
            <g id="Group" transform="translate(452.500000, 162.000000)">
                <path d="M225.75,19.125 C227.826,19.125 229.8465,19.527 231.7575,20.3175 C231.7905,20.3295 231.822,20.343 231.855,20.358 C237.7065,22.8165 241.5,28.518 241.5,34.875 C241.5,35.496 240.996,36 240.375,36 C239.754,36 239.25,35.496 239.25,34.875 C239.25,29.9895 236.673,25.5795 232.467,23.169 C232.1295,26.5785 229.2465,29.25 225.75,29.25 C222.2535,29.25 219.3705,26.5785 219.033,23.169 C214.827,25.5795 212.25,29.988 212.25,34.875 C212.25,35.496 211.746,36 211.125,36 C210.504,36 210,35.496 210,34.875 C210,28.518 213.795,22.8165 219.6675,20.3475 C219.684,20.34 219.72,20.325 219.759,20.3115 C221.643,19.5285 223.6695,19.125 225.75,19.125 Z M225.75,21.375 C224.2095,21.375 222.6975,21.636 221.25,22.1505 L221.25,22.5 C221.25,24.981 223.269,27 225.75,27 C228.231,27 230.25,24.981 230.25,22.5 L230.25,22.1505 C228.801,21.636 227.2905,21.375 225.75,21.375 Z M225.75,0 C230.712,0 234.75,4.038 234.75,9 C234.75,13.962 230.712,18 225.75,18 C220.788,18 216.75,13.962 216.75,9 C216.75,7.4235 217.167,5.8695 217.9575,4.5045 C217.9605,4.4985 217.971,4.482 217.971,4.479 C219.5835,1.716 222.564,0 225.75,0 Z M219.3465,6.8805 C219.117,7.566 219,8.277 219,9 C219,12.7215 222.0285,15.75 225.75,15.75 C229.2975,15.75 232.215,12.999 232.4805,9.519 C231.1515,9.921 229.776,10.125 228.381,10.125 C225.117,10.125 221.871,8.9505 219.3465,6.8805 Z M225.75,2.25 C223.665,2.25 221.7105,3.213 220.4325,4.848 C222.606,6.777 225.4725,7.875 228.372,7.875 L228.3765,7.875 C228.387,7.875 228.4005,7.875 228.411,7.8765 C229.7085,7.8765 231.0075,7.6575 232.26,7.224 C231.468,4.3155 228.8025,2.25 225.75,2.25 Z" id="Combined-Shape"></path>
            </g>
        </g>
    </g>
</svg>