<?xml version="1.0" encoding="UTF-8"?>
<svg width="18px" height="24px" viewBox="0 0 18 24" version="1.1" xmlns="http://www.w3.org/2000/svg" xmlns:xlink="http://www.w3.org/1999/xlink">
    <g id="Page-1" stroke="none" stroke-width="1" fill="none" fill-rule="evenodd">
        <g id="02A-Team-Details" transform="translate(-675.000000, -209.000000)" fill="#555555" fill-rule="nonzero">
            <g id="Group" transform="translate(305.000000, 182.000000)">
                <g id="info-copy-4" transform="translate(367.000000, 20.000000)">
                    <g id="ic-rating-24" transform="translate(3.000000, 7.000000)">
                        <path d="M16.5,24 C16.1841336,24 15.8763994,23.8998569 15.621,23.714 L9.444,19.221 C9.18127239,19.0292284 8.82472761,19.0292284 8.562,19.221 L2.383,23.711 C2.12699158,23.8989825 1.81761247,24 1.5,24 C1.01987083,23.9994815 0.568683635,23.7703602 0.285,23.383 C0.0984417454,23.1265017 -0.00140088844,22.8171647 -1.45426959e-05,22.5 L-1.45426959e-05,2.25 C0.00110269364,1.00781635 1.00781635,0.00110269364 2.25,0 L15.75,0 C16.9921836,0.00110269364 17.9988973,1.00781635 18,2.25 L18,22.5 C18,23.3284271 17.3284271,24 16.5,24 L16.5,24 Z M2.25,1.5 C1.83578644,1.5 1.5,1.83578644 1.5,2.25 L1.5,22.5 L7.677,18.007 C8.46538951,17.4323194 9.53461049,17.4323194 10.323,18.007 L16.5,22.5 L16.5,2.25 C16.5,1.83578644 16.1642136,1.5 15.75,1.5 L2.25,1.5 Z" id="Shape"></path>
                        <path d="M11.912,15.222 C11.6755726,15.2225106 11.4432761,15.1600356 11.239,15.041 L9,13.779 L6.753,15.043 C6.55212901,15.159254 6.32408627,15.2203184 6.092,15.22 C5.64314867,15.2210914 5.22360737,14.9972155 4.97462872,14.6237475 C4.72565006,14.2502795 4.68035739,13.7769045 4.854,13.363 L5.734,11.341 L4.149,9.78 C3.6245924,9.26720705 3.61297389,8.42709894 4.123,7.9 C4.37385586,7.64197753 4.71813432,7.49597462 5.078,7.495 L6.761,7.495 L7.8,5.451 C7.95997941,5.13230334 8.24055809,4.89065246 8.57945112,4.77969081 C8.91834415,4.66872916 9.28751054,4.69763803 9.605,4.86 C9.86016766,4.98983666 10.0677329,5.19705184 10.198,5.452 L11.239,7.5 L12.907,7.5 C13.4522704,7.49423739 13.9458993,7.82165365 14.1526685,8.32623217 C14.3594377,8.8308107 14.2375159,9.41047098 13.845,9.789 L12.264,11.345 L13.14,13.357 C13.3169096,13.7702106 13.2746901,14.2446175 13.0275921,14.6200938 C12.780494,14.9955702 12.3614875,15.2220164 11.912,15.223 L11.912,15.222 Z M9,12.168 C9.12929016,12.1686576 9.25615813,12.2031326 9.368,12.268 L11.568,13.51 L10.681,11.473 C10.5583325,11.1881401 10.6226113,10.8572231 10.843,10.639 L12.51,9 L10.779,9 C10.4966264,9.00097243 10.2379725,8.84221778 10.111,8.59 L9,6.4 L7.89,8.586 C7.76267008,8.83788891 7.50424223,8.99650481 7.222,8.996 L5.49,8.996 L7.154,10.633 C7.37438866,10.8512231 7.43866751,11.1821401 7.316,11.467 L6.429,13.5 L8.629,12.26 C8.74053004,12.1952577 8.86704302,12.1607855 8.996,12.16 L9,12.168 Z" id="Shape"></path>
                    </g>
                </g>
            </g>
        </g>
    </g>
</svg>
