<svg viewBox="0 0 36 36" height="36" width="36" xmlns="http://www.w3.org/2000/svg"><g transform="matrix(1.5,0,0,1.5,0,0)"><path d="M12.013,23.25A11.25,11.25,0,1,1,23.25,12" fill="none" stroke="#000" stroke-linecap="round" stroke-linejoin="round" stroke-width="1.5"></path><path d="M8.247,12.74l-.463-1.854A1.5,1.5,0,0,0,6.329,9.75H.976A11.246,11.246,0,0,0,4.992,20.792L6,15.75H7.477" fill="none" stroke="#000" stroke-linecap="round" stroke-linejoin="round" stroke-width="1.5"></path><path d="M20.985,5.25H16.921a1.5,1.5,0,0,0-1.455,1.136L15.2,7.451" fill="none" stroke="#000" stroke-linecap="round" stroke-linejoin="round" stroke-width="1.5"></path><path d="M10.514 15.750 A5.250 5.250 0 1 0 21.014 15.750 A5.250 5.250 0 1 0 10.514 15.750 Z" fill="none" stroke="#000" stroke-linecap="round" stroke-linejoin="round" stroke-width="1.5"></path><path d="M23.25 23.25L19.476 19.462" fill="none" stroke="#000" stroke-linecap="round" stroke-linejoin="round" stroke-width="1.5"></path></g></svg>