<svg viewBox="0 0 36 36" height="36" width="36" xmlns="http://www.w3.org/2000/svg"><g transform="matrix(1.5,0,0,1.5,0,0)"><path d="M22.749,23.25a6.73,6.73,0,0,0-6.337-4.5h-.006a6.728,6.728,0,0,0-6.336,4.5" fill="none" stroke="#000" stroke-linecap="round" stroke-linejoin="round" stroke-width="1.5"></path><path d="M12.851,11.031a6.858,6.858,0,0,0,7.643,1.536" fill="none" stroke="#000" stroke-linecap="round" stroke-linejoin="round" stroke-width="1.5"></path><path d="M12.281 13.125 A4.125 4.125 0 1 0 20.531 13.125 A4.125 4.125 0 1 0 12.281 13.125 Z" fill="none" stroke="#000" stroke-linecap="round" stroke-linejoin="round" stroke-width="1.5"></path><path d="M11.156,8.25h-1.5V10.5l-3-2.25h-4.5a1.5,1.5,0,0,1-1.5-1.5V2.25a1.5,1.5,0,0,1,1.5-1.5h9a1.5,1.5,0,0,1,1.5,1.5v4.5A1.5,1.5,0,0,1,11.156,8.25Z" fill="none" stroke="#000" stroke-linecap="round" stroke-linejoin="round" stroke-width="1.5"></path><path d="M7.406 3L3.656 3" fill="none" stroke="#000" stroke-linecap="round" stroke-linejoin="round" stroke-width="1.5"></path><path d="M9.656 5.25L3.656 5.25" fill="none" stroke="#000" stroke-linecap="round" stroke-linejoin="round" stroke-width="1.5"></path><path d="M2.499 15.750 A3.000 3.000 0 1 0 8.499 15.750 A3.000 3.000 0 1 0 2.499 15.750 Z" fill="none" stroke="#000" stroke-linecap="round" stroke-linejoin="round" stroke-width="1.5"></path><path d="M8.162,21.132A4.436,4.436,0,0,0,5.5,20.25a4.487,4.487,0,0,0-4.225,3" fill="none" stroke="#000" stroke-linecap="round" stroke-linejoin="round" stroke-width="1.5"></path><path d="M16.406 18.75L16.406 23.25" fill="none" stroke="#000" stroke-linecap="round" stroke-linejoin="round" stroke-width="1.5"></path></g></svg>