<?xml version="1.0" encoding="UTF-8"?>
<svg width="21px" height="24px" viewBox="0 0 21 24" version="1.1" xmlns="http://www.w3.org/2000/svg" xmlns:xlink="http://www.w3.org/1999/xlink">
    <g id="Page-1" stroke="none" stroke-width="1" fill="none" fill-rule="evenodd">
        <g id="02E-Job-Details" transform="translate(-331.000000, -213.000000)" fill="#555555" fill-rule="nonzero">
            <g id="Group" transform="translate(305.000000, 182.000000)">
                <g id="info-copy" transform="translate(24.000000, 24.000000)">
                    <g id="desktop-computer" transform="translate(2.000000, 7.000000)">
                        <g>
                            <path d="M2.25,15 C1.00781635,14.9988973 0.00110269364,13.9921836 0,12.75 L0,2.25 C0,1.01 1.009,0 2.25,0 L18.75,0 C19.9921836,0.00110269364 20.9988973,1.00781635 21,2.25 L21,12.75 C20.9988973,13.9921836 19.9921836,14.9988973 18.75,15 L2.25,15 Z M1.5,12.75 C1.5,13.164 1.836,13.5 2.25,13.5 L18.75,13.5 C19.1642136,13.5 19.5,13.1642136 19.5,12.75 L19.5,12 L1.5,12 L1.5,12.75 Z M19.5,10.5 L19.5,2.25 C19.5,1.83578644 19.1642136,1.5 18.75,1.5 L2.25,1.5 C1.83578644,1.5 1.5,1.83578644 1.5,2.25 L1.5,10.5 L19.5,10.5 Z" id="Shape"></path>
                            <path d="M2.46989185,24.0000019 C2.0824202,23.9978148 1.71179541,23.8300418 1.44030147,23.533929 C1.06505536,23.1372438 0.915224003,22.5566605 1.04698599,22.0098663 L2.16718829,17.2126415 C2.33099615,16.499659 2.928474,15.9988832 3.6139918,16.0000019 L17.3840163,16.0000019 C18.0690829,16.0002351 18.6664173,16.4989802 18.8338071,17.2105084 L19.9540094,22.0109328 C20.0515914,22.4236776 19.992843,22.8534867 19.7877215,23.220371 C19.5194216,23.7041349 19.0325398,24.0001624 18.5072059,23.9989335 L2.46989185,24.0000019 L2.46989185,24.0000019 Z M2.49478523,22.4002141 L18.5052144,22.4002141 L17.3850121,17.6008562 L3.61498753,17.5997897 L2.49478523,22.4002141 Z" id="Shape"></path>
                            <path d="M4.75,21 C4.33578644,21 4,20.5522847 4,20 C4,19.4477153 4.33578644,19 4.75,19 L6.25,19 C6.66421356,19 7,19.4477153 7,20 C7,20.5522847 6.66421356,21 6.25,21 L4.75,21 Z" id="Path"></path>
                            <path d="M13.75,21 C13.3357864,21 13,20.5522847 13,20 C13,19.4477153 13.3357864,19 13.75,19 L15.25,19 C15.6642136,19 16,19.4477153 16,20 C16,20.5522847 15.6642136,21 15.25,21 L13.75,21 Z" id="Path"></path>
                            <path d="M9.75,21 C9.33578644,21 9,20.5522847 9,20 C9,19.4477153 9.33578644,19 9.75,19 L11.25,19 C11.6642136,19 12,19.4477153 12,20 C12,20.5522847 11.6642136,21 11.25,21 L9.75,21 Z" id="Path"></path>
                        </g>
                    </g>
                </g>
            </g>
        </g>
    </g>
</svg>