<svg viewBox="0 0 72 72" height="72" width="72" xmlns="http://www.w3.org/2000/svg"><g transform="matrix(3,0,0,3,0,0)"><path d="M3.000 3.750 A3.000 3.000 0 1 0 9.000 3.750 A3.000 3.000 0 1 0 3.000 3.750 Z" fill="none" stroke="#FFF" stroke-linecap="round" stroke-linejoin="round" stroke-width="1.5"></path><path d="M10.555,10.888A5.251,5.251,0,0,0,.75,13.5v2.25H3l.75,7.5h4.5l.323-3.233" fill="none" stroke="#FFF" stroke-linecap="round" stroke-linejoin="round" stroke-width="1.5"></path><path d="M23.25,17.25a6,6,0,1,1-6-6" fill="none" stroke="#FFF" stroke-linecap="round" stroke-linejoin="round" stroke-width="1.5"></path><path d="M23.25,12.749l-5.47,5.47a.749.749,0,0,1-1.06,0L15,16.5" fill="none" stroke="#FFF" stroke-linecap="round" stroke-linejoin="round" stroke-width="1.5"></path><path d="M13.875 3.375 A2.625 2.625 0 1 0 19.125 3.375 A2.625 2.625 0 1 0 13.875 3.375 Z" fill="none" stroke="#FFF" stroke-linecap="round" stroke-linejoin="round" stroke-width="1.5"></path><path d="M20.4,9a4.5,4.5,0,0,0-7.285-.71" fill="none" stroke="#FFF" stroke-linecap="round" stroke-linejoin="round" stroke-width="1.5"></path></g></svg>