<?xml version="1.0" encoding="UTF-8"?>
<svg width="24px" height="24px" viewBox="0 0 24 24" version="1.1" xmlns="http://www.w3.org/2000/svg" xmlns:xlink="http://www.w3.org/1999/xlink">
    <g id="Page-1" stroke="none" stroke-width="1" fill="none" fill-rule="evenodd">
        <g id="01A-My-Teams" transform="translate(-329.000000, -365.000000)" fill="#555555" fill-rule="nonzero">
            <g id="My-team-card" transform="translate(305.000000, 182.000000)">
                <g id="info-copy-2" transform="translate(24.000000, 176.000000)">
                    <g id="ic-cost-24" transform="translate(0.000000, 7.000000)">
                        <path d="M12,24 C5.372583,24 -2.88657986e-15,18.627417 -2.88657986e-15,12 C-2.88657986e-15,5.372583 5.372583,-2.88657986e-15 12,-2.88657986e-15 C18.627417,-2.88657986e-15 24,5.372583 24,12 C23.9922852,18.6242188 18.6242188,23.9922852 12,24 Z M12,1.6 C6.2562386,1.6 1.6,6.2562386 1.6,12 C1.6,17.7437614 6.2562386,22.4 12,22.4 C17.7437614,22.4 22.4,17.7437614 22.4,12 C22.3933872,6.25897995 17.74102,1.60661282 12,1.6 Z" id="Shape"></path>
                        <path d="M12,20 C11.5581722,20 11.2,19.6418278 11.2,19.2 L11.2,17.6 L8.8,17.6 C8.3581722,17.6 8,17.2418278 8,16.8 C8,16.3581722 8.3581722,16 8.8,16 L13.351,16 C13.942072,15.9868816 14.4111655,15.4981121 14.4,14.907 C14.4,14.307 12.716,13.337 11.6,12.694 C9.757,11.63 8.017,10.626 8,9.13 C7.95290542,8.3912864 8.22636108,7.66809509 8.75044064,7.14535588 C9.27452021,6.62261666 9.99840943,6.35101387 10.737,6.4 L11.2,6.4 L11.2,4.8 C11.2,4.3581722 11.5581722,4 12,4 C12.4418278,4 12.8,4.3581722 12.8,4.8 L12.8,6.4 L15.2,6.4 C15.6418278,6.4 16,6.7581722 16,7.2 C16,7.6418278 15.6418278,8 15.2,8 L10.708,8 C10.686,8 10.664,8 10.642,8 C10.385443,7.97825197 10.1309455,8.06080144 9.936,8.229 C9.69811425,8.43127917 9.57228521,8.73580032 9.598,9.047 C9.59908258,9.0683196 9.59908258,9.0896804 9.598,9.111 C9.598,9.694 11.283,10.666 12.398,11.311 C14.25,12.38 15.998,13.388 15.998,14.896 C16.0141975,16.3645565 14.8433701,17.5715399 13.375,17.6 L12.8,17.6 L12.8,19.2 C12.8,19.6418278 12.4418278,20 12,20 Z" id="Path"></path>
                    </g>
                </g>
            </g>
        </g>
    </g>
</svg>
