<?xml version="1.0" encoding="UTF-8"?>
<svg width="24px" height="24px" viewBox="0 0 24 24" version="1.1" xmlns="http://www.w3.org/2000/svg" xmlns:xlink="http://www.w3.org/1999/xlink">
    <g id="Page-1" stroke="none" stroke-width="1" fill="none" fill-rule="evenodd">
        <g id="01A-My-Teams" transform="translate(-679.000000, -421.000000)" fill="#555555" fill-rule="nonzero">
            <g id="My-team-card-Copy" transform="translate(655.000000, 182.000000)">
                <g id="info-copy-3" transform="translate(24.000000, 232.000000)">
                    <g id="ic-user-24" transform="translate(0.000000, 7.000000)">
                        <path d="M4.5,9 C2.84314575,9 1.5,7.65685425 1.5,6 C1.5,4.34314575 2.84314575,3 4.5,3 C6.15685425,3 7.5,4.34314575 7.5,6 C7.5,6.79564947 7.18392948,7.55871121 6.62132034,8.12132034 C6.05871121,8.68392948 5.29564947,9 4.5,9 Z M4.5,4.5 C3.67157288,4.5 3,5.17157288 3,6 C3,6.82842712 3.67157288,7.5 4.5,7.5 C5.32842712,7.5 6,6.82842712 6,6 C6,5.17157288 5.32842712,4.5 4.5,4.5 Z" id="Shape"></path>
                        <path d="M3,22.5 C2.62199638,22.4994493 2.30331302,22.2180314 2.256,21.843 L1.588,16.5 L0.75,16.5 C0.335786438,16.5 0,16.1642136 0,15.75 L0,13.5 C0.00275556448,11.0158609 2.01586091,9.00275556 4.5,9 C4.91421356,9 5.25,9.33578644 5.25,9.75 C5.25,10.1642136 4.91421356,10.5 4.5,10.5 C2.84314575,10.5 1.5,11.8431458 1.5,13.5 L1.5,15 L2.25,15 C2.62800362,15.0005507 2.94668698,15.2819686 2.994,15.657 L3.662,21 L6,21 C6.41421356,21 6.75,21.3357864 6.75,21.75 C6.75,22.1642136 6.41421356,22.5 6,22.5 L3,22.5 Z" id="Path"></path>
                        <path d="M19.5,9 C17.8431458,9 16.5,7.65685425 16.5,6 C16.5,4.34314575 17.8431458,3 19.5,3 C21.1568542,3 22.5,4.34314575 22.5,6 C22.5,6.79564947 22.1839295,7.55871121 21.6213203,8.12132034 C21.0587112,8.68392948 20.2956495,9 19.5,9 Z M19.5,4.5 C18.6715729,4.5 18,5.17157288 18,6 C18,6.82842712 18.6715729,7.5 19.5,7.5 C20.3284271,7.5 21,6.82842712 21,6 C21,5.17157288 20.3284271,4.5 19.5,4.5 Z" id="Shape"></path>
                        <path d="M18,22.5 C17.5857864,22.5 17.25,22.1642136 17.25,21.75 C17.25,21.3357864 17.5857864,21 18,21 L20.338,21 L21.006,15.657 C21.053313,15.2819686 21.3719964,15.0005507 21.75,15 L22.5,15 L22.5,13.5 C22.5,11.8431458 21.1568542,10.5 19.5,10.5 C19.0857864,10.5 18.75,10.1642136 18.75,9.75 C18.75,9.33578644 19.0857864,9 19.5,9 C21.9841391,9.00275556 23.9972444,11.0158609 24,13.5 L24,15.75 C24,16.1642136 23.6642136,16.5 23.25,16.5 L22.412,16.5 L21.744,21.843 C21.696687,22.2180314 21.3780036,22.4994493 21,22.5 L18,22.5 Z" id="Path"></path>
                        <path d="M12,7.5 C9.92893219,7.5 8.25,5.82106781 8.25,3.75 C8.25,1.67893219 9.92893219,0 12,0 C14.0710678,0 15.75,1.67893219 15.75,3.75 C15.7477954,5.82015393 14.0701539,7.49779536 12,7.5 L12,7.5 Z M12,1.5 C10.7573593,1.5 9.75,2.50735931 9.75,3.75 C9.75,4.99264069 10.7573593,6 12,6 C13.2426407,6 14.25,4.99264069 14.25,3.75 C14.2488973,2.50781635 13.2421836,1.50110269 12,1.5 L12,1.5 Z" id="Shape"></path>
                        <path d="M9.75,24.0000285 C9.36285263,24.0033561 9.03730226,23.7103607 9,23.325 L8.321,16.5 L6.75,16.5 C6.33578644,16.5 6,16.1642136 6,15.75 L6,13.5 C6,10.1862915 8.6862915,7.5 12,7.5 C15.3137085,7.5 18,10.1862915 18,13.5 L18,15.75 C18,16.1642136 17.6642136,16.5 17.25,16.5 L15.679,16.5 L15,23.325 C14.9626977,23.7103607 14.6371474,24.0033561 14.25,24.0000285 L9.75,24.0000285 Z M13.571,22.5 L14.254,15.675 C14.291166,15.2911757 14.6143826,14.998721 15,15 L16.5,15 L16.5,13.5 C16.5,11.0147186 14.4852814,9 12,9 C9.51471863,9 7.5,11.0147186 7.5,13.5 L7.5,15 L9,15 C9.38561742,14.998721 9.70883397,15.2911757 9.746,15.675 L10.428,22.5 L13.571,22.5 Z" id="Shape"></path>
                    </g>
                </g>
            </g>
        </g>
    </g>
</svg>
