<?xml version="1.0" encoding="UTF-8"?>
<svg width="24px" height="24px" viewBox="0 0 24 24" version="1.1" xmlns="http://www.w3.org/2000/svg" xmlns:xlink="http://www.w3.org/1999/xlink">
    <g id="Page-1" stroke="none" stroke-width="1" fill="none" fill-rule="evenodd">
        <g id="02E-Job-Details" transform="translate(-329.000000, -547.000000)" fill="#555555" fill-rule="nonzero">
            <g id="Group" transform="translate(305.000000, 182.000000)">
                <g id="info-copy-4" transform="translate(24.000000, 358.000000)">
                    <g id="ic-skill" transform="translate(0.000000, 7.000000)">
                        <path d="M6,23.9985 C5.58578644,23.9985 5.25,23.6627136 5.25,23.2485 C5.25,22.8342864 5.58578644,22.4985 6,22.4985 L7.6635,22.4985 L8.0385,20.9985 L3.75,20.9985 C1.67893219,20.9985 0,19.3195678 0,17.2485 L0,6.7485 C0,4.67743219 1.67893219,2.9985 3.75,2.9985 L8.25,2.9985 C8.66421355,2.9985 9,3.33428645 9,3.7485 C9,4.16271355 8.66421355,4.4985 8.25,4.4985 L3.75,4.4985 C2.50735931,4.4985 1.5,5.50585931 1.5,6.7485 L1.5,16.4985 L22.5,16.4985 L22.5,14.2485 C22.5,13.8342864 22.8357864,13.4985 23.25,13.4985 C23.6642136,13.4985 24,13.8342864 24,14.2485 L24,17.2485 C24,19.3195678 22.3210678,20.9985 20.25,20.9985 L15.96,20.9985 L16.335,22.4985 L18,22.4985 C18.4142136,22.4985 18.75,22.8342864 18.75,23.2485 C18.75,23.6627136 18.4142136,23.9985 18,23.9985 L6,23.9985 Z M14.79,22.4985 L14.415,20.9985 L9.5865,20.9985 L9.2115,22.4985 L14.79,22.4985 Z M1.632,17.9985 C1.9524069,18.8940776 2.79884537,19.4935382 3.75,19.4985 L20.25,19.4985 C21.2011546,19.4935382 22.0475931,18.8940776 22.368,17.9985 L1.632,17.9985 Z" id="Shape"></path>
                        <path d="M17.25,9.7485 C16.0073593,9.7485 15,8.74114069 15,7.4985 C15,6.25585931 16.0073593,5.2485 17.25,5.2485 C18.4926407,5.2485 19.5,6.25585931 19.5,7.4985 C19.5,8.74114069 18.4926407,9.7485 17.25,9.7485 Z M17.25,6.7485 C16.8357864,6.7485 16.5,7.08428644 16.5,7.4985 C16.5,7.91271356 16.8357864,8.2485 17.25,8.2485 C17.6642136,8.2485 18,7.91271356 18,7.4985 C18,7.08428644 17.6642136,6.7485 17.25,6.7485 Z" id="Shape"></path>
                        <path d="M17.2485,14.9985009 C16.329686,14.9993704 15.5197587,14.3957396 15.258,13.515 L14.817,12.0645 C14.7799956,11.9414589 14.6545338,11.8676194 14.529,11.895 L13.0575,12.2355 C12.1633988,12.4388957 11.241159,12.035605 10.7834483,11.2410688 C10.3257376,10.4465326 10.4395151,9.44642047 11.064,8.775 L12.0945,7.665 C12.1834959,7.56894554 12.1834959,7.42055446 12.0945,7.3245 L11.064,6.216 C10.4439077,5.54541604 10.3312108,4.54979452 10.7857246,3.75757323 C11.2402384,2.96535194 12.1566244,2.56013661 13.0485,2.757 L14.526,3.099 C14.6507179,3.12640627 14.7755225,3.0532224 14.8125,2.931 L15.2625,1.4805 C15.5263932,0.601234964 16.3357377,-0.000867640183 17.25375,-0.000867640183 C18.1717623,-0.000867640183 18.9811068,0.601234964 19.245,1.4805 L19.6875,2.931 C19.7245044,3.05404106 19.8499662,3.12788056 19.9755,3.1005 L21.447,2.76 C22.3411012,2.55660427 23.263341,2.95989501 23.7210517,3.7544312 C24.1787624,4.54896739 24.0649849,5.54907953 23.4405,6.2205 L22.41,7.329 C22.3217236,7.42533543 22.3217236,7.57316457 22.41,7.6695 L23.4405,8.781 C24.0630913,9.45243061 24.1759935,10.4509997 23.7190319,11.2444889 C23.2620702,12.037978 22.3417157,12.441506 21.4485,12.24 L19.971,11.8995 C19.8464037,11.8728546 19.7220822,11.9457552 19.6845,12.0675 L19.2345,13.518 C18.9650283,14.3909675 18.1620683,14.9895486 17.2485,14.9985009 Z M14.5815,10.3905 C15.3494633,10.3937974 16.0262477,10.8956142 16.2525,11.6295 L16.695,13.0815 C16.7689568,13.3265942 16.9947407,13.4943033 17.25075,13.4943033 C17.5067593,13.4943033 17.7325432,13.3265942 17.8065,13.0815 L18.2565,11.628 C18.5250299,10.7521371 19.42161,10.2297306 20.316,10.428 L21.7905,10.7685 C21.9800382,10.8095892 22.1775757,10.7533106 22.317,10.6185 C22.4318352,10.5124328 22.4997073,10.3650037 22.505618,10.208791 C22.5115288,10.0525782 22.4549917,9.90044169 22.3485,9.786 L21.318,8.6745 C20.6964775,8.00155134 20.6964775,6.96394866 21.318,6.291 L22.3485,5.184 C22.5230206,4.99458479 22.5543692,4.71379892 22.42592,4.49055833 C22.2974708,4.26731775 22.0389641,4.15331017 21.7875,4.209 L20.319,4.5495 C19.4241106,4.74864927 18.5265659,4.2260614 18.258,3.3495 L17.808,1.8945 C17.7340432,1.64940579 17.5082593,1.48169671 17.25225,1.48169671 C16.9962407,1.48169671 16.7704568,1.64940579 16.6965,1.8945 L16.2465,3.348 C15.9779701,4.22386293 15.08139,4.74626944 14.187,4.548 L12.7125,4.2075 C12.5229444,4.16585505 12.3251462,4.22220783 12.186,4.3575 C12.0711648,4.46356716 12.0032927,4.61099626 11.997382,4.76720905 C11.9914712,4.92342184 12.0480083,5.07555831 12.1545,5.19 L13.1985,6.2985 C13.8200225,6.97144866 13.8200225,8.00905134 13.1985,8.682 L12.1695,9.792 C11.9917612,9.9804454 11.9582826,10.2630074 12.0870636,10.48777 C12.2158446,10.7125325 12.4765441,10.826541 12.729,10.7685 L14.196,10.428 C14.3226847,10.4010676 14.4519997,10.3884884 14.5815,10.3905 Z" id="Shape"></path>
                    </g>
                </g>
            </g>
        </g>
    </g>
</svg>